<svg enable-background="new 0 0 128 128" height="150" viewBox="0 0 128 128" width="150" xmlns="http://www.w3.org/2000/svg"><path d="m28.1 117.5v-17.2c0-3.3 2.7-5.9 6-5.9h20.6c3.3 0 6 2.7 6 5.9v17.2" fill="#fff"/><path d="m44.4 76.1c2.5 0 4.6 2 4.6 4.6v13.6h-9.2v-13.6c0-2.5 2.1-4.6 4.6-4.6z" fill="#fff"/><g fill="#454b54"><path d="m49 97.3h-9.2c-1.7 0-3-1.3-3-3v-13.6c0-4.2 3.4-7.6 7.6-7.6s7.6 3.4 7.6 7.6v13.6c0 1.7-1.4 3-3 3zm-6.2-6h3.2v-10.6c0-.9-.7-1.6-1.6-1.6s-1.6.7-1.6 1.6z"/><path d="m44.4 79.1c-1.7 0-3-1.3-3-3v-30.7c0-1.7 1.3-3 3-3s3 1.3 3 3v30.7c0 1.7-1.4 3-3 3z"/><path d="m60.7 120.5c-1.7 0-3-1.3-3-3v-17.2c0-1.6-1.3-2.9-3-2.9h-20.6c-1.7 0-3 1.3-3 2.9v17.2c0 1.7-1.3 3-3 3s-3-1.3-3-3v-17.2c0-4.9 4-8.9 9-8.9h20.6c5 0 9 4 9 8.9v17.2c0 1.7-1.4 3-3 3z"/><path d="m91.8 44.6c-1.7 0-3-1.3-3-3v-.6c0-1.7 1.3-3 3-3 1.7 0 3 1.3 3 3v.6c0 1.6-1.4 3-3 3zm-47.4-8.1c-1.7 0-3-1.3-3-3 0-.6 0-1.1.1-1.7.1-1.7 1.5-2.9 3.2-2.8s2.9 1.5 2.8 3.2v1.3c-.1 1.7-1.5 3-3.1 3zm46.9-4.5c-1.4 0-2.6-1-2.9-2.4-.1-.4-.2-.8-.3-1.3-.4-1.6.5-3.2 2.1-3.7 1.6-.4 3.2.5 3.7 2.1.1.5.3 1.1.4 1.7.3 1.6-.7 3.2-2.3 3.5-.3 0-.5.1-.7.1zm-43.1-8.2c-.6 0-1.2-.2-1.7-.5-1.4-.9-1.7-2.8-.8-4.2.3-.5.6-.9 1-1.4 1-1.3 2.9-1.6 4.2-.5 1.3 1 1.6 2.9.5 4.2-.3.3-.5.7-.8 1.1-.4.8-1.4 1.3-2.4 1.3zm36.8-3.5c-.8 0-1.5-.3-2.1-.9-.3-.3-.6-.6-1-.9-1.2-1.1-1.4-3-.3-4.2s3-1.4 4.2-.3c.4.4.8.8 1.2 1.2 1.2 1.2 1.2 3.1 0 4.2-.5.6-1.3.9-2 .9zm-26.5-5c-1.2 0-2.3-.7-2.8-1.8-.6-1.5.1-3.3 1.6-3.9.5-.2 1-.4 1.6-.6 1.6-.5 3.3.3 3.8 1.9s-.3 3.3-1.9 3.8c-.4.1-.8.3-1.2.5-.3 0-.7.1-1.1.1zm14.7-1.3c-.2 0-.4 0-.6-.1-.4-.1-.9-.2-1.3-.2-1.6-.2-2.8-1.7-2.6-3.4.2-1.6 1.7-2.8 3.4-2.6.6.1 1.1.2 1.7.3 1.6.3 2.7 1.9 2.3 3.5-.2 1.5-1.5 2.5-2.9 2.5z"/></g><path d="m85.5 76.3c3.5 3.5 9.2 3.5 12.7 0s2.6-8.5 0-12.6c-4-6.2-6.3-9.8-6.3-9.8s-2.7 4.2-6.3 9.8c-3.4 5-3.6 9.1-.1 12.6z" fill="#98bed8"/></svg>